<svg width="65" height="55" viewBox="0 0 65 55" fill="none" xmlns="http://www.w3.org/2000/svg">
<path d="M13.6411 6.52197C13.6402 8.10691 12.9208 9.62661 11.641 10.7468C10.3613 11.8669 8.62608 12.4958 6.81716 12.495C5.00823 12.4942 3.27375 11.8638 1.99529 10.7425C0.716822 9.62127 -0.00090361 8.10093 8.53804e-07 6.51599C0.000905317 4.93106 0.720366 3.41135 2.00011 2.29119C3.27985 1.17103 5.01505 0.542177 6.82398 0.542969C8.6329 0.543762 10.3674 1.17414 11.6458 2.29542C12.9243 3.4167 13.642 4.93703 13.6411 6.52197ZM13.8458 16.9202H0.204618V54.3301H13.8458V16.9202ZM35.3987 16.9202H21.8258V54.3301H35.2623V34.6989C35.2623 23.7628 51.5294 22.7468 51.5294 34.6989V54.3301H65V30.6352C65 12.1992 40.9234 12.8864 35.2623 21.9401L35.3987 16.9202Z" fill="#FFFAE8"/>
</svg>
