<svg width="64" height="56" viewBox="0 0 64 56" fill="none" xmlns="http://www.w3.org/2000/svg">
<path d="M45.8916 3.42188H17.3431C9.45964 3.42188 3.06885 8.9661 3.06885 15.8053V40.572C3.06885 47.4112 9.45964 52.9554 17.3431 52.9554H45.8916C53.775 52.9554 60.1658 47.4112 60.1658 40.572V15.8053C60.1658 8.9661 53.775 3.42188 45.8916 3.42188Z" stroke="#FFFAE8" stroke-width="6" stroke-linecap="round" stroke-linejoin="round"/>
<path d="M47.3197 14.5669H47.3482M43.0374 26.6283C43.3897 28.6895 42.9839 30.7946 41.8777 32.6442C40.7714 34.4938 39.0211 35.9936 36.8756 36.9305C34.7301 37.8673 32.2988 38.1934 29.9273 37.8623C27.5559 37.5313 25.3652 36.56 23.6668 35.0866C21.9684 33.6131 20.8488 31.7126 20.4672 29.6553C20.0856 27.5981 20.4615 25.4888 21.5413 23.6275C22.6212 21.7662 24.3501 20.2477 26.4821 19.288C28.6141 18.3283 31.0406 17.9763 33.4166 18.2819C35.8401 18.5937 38.0838 19.5734 39.8163 21.0764C41.5487 22.5793 42.678 24.5258 43.0374 26.6283Z" stroke="#FFFAE8" stroke-width="6" stroke-linecap="round" stroke-linejoin="round"/>
</svg>
