<svg width="63" height="64" viewBox="0 0 63 64" fill="none" xmlns="http://www.w3.org/2000/svg">
<path d="M49.9821 9.9217C47.2363 7.17573 45.7228 3.64991 45.7232 0H33.308V43.6273C33.2143 45.9888 32.0766 48.226 30.1352 49.8671C28.1937 51.5081 25.6002 52.4246 22.9018 52.4231C17.1964 52.4231 12.4554 48.3419 12.4554 43.2755C12.4554 37.2239 19.125 32.6853 25.9955 34.55V23.4321C12.1339 21.8137 0 31.2428 0 43.2755C0 54.9915 11.0893 63.33 22.8616 63.33C35.4777 63.33 45.7232 54.3582 45.7232 43.2755V21.1452C50.7576 24.3111 56.8019 26.0098 63 26.0005V15.1288C63 15.1288 55.4464 15.4455 49.9821 9.9217Z" fill="#FFFAE8"/>
</svg>
