<svg width="77" height="47" viewBox="0 0 77 47" fill="none" xmlns="http://www.w3.org/2000/svg">
<path d="M75.0974 7.72837C74.6619 6.32067 73.8073 5.03711 72.6193 4.00648C71.4313 2.97586 69.9517 2.23444 68.3291 1.85663C63.8961 0.370826 20.949 -0.357118 8.48899 1.89818C6.86612 2.27614 5.38641 3.01781 4.1984 4.04874C3.01039 5.07967 2.15589 6.36358 1.72068 7.77158C-0.281273 15.3884 -0.432617 31.8552 1.77049 39.6432C2.20599 41.0509 3.06062 42.3345 4.24861 43.3651C5.4366 44.3957 6.91616 45.1371 8.5388 45.5149C17.3186 47.2683 59.0588 47.5143 68.3789 45.5149C70.0015 45.1371 71.4811 44.3957 72.6691 43.3651C73.8571 42.3345 74.7117 41.0509 75.1472 39.6432C77.2814 31.345 77.4327 15.8986 75.0974 7.72837Z" fill="#FFFAE8"/>
<path d="M51.0644 23.6844L31.0507 13.7275V33.6413L51.0644 23.6844Z" fill="#FE4239"/>
</svg>
