<?xml version="1.0" encoding="UTF-8"?>
<svg id="Lag_1" xmlns="http://www.w3.org/2000/svg" version="1.1" viewBox="0 0 354.9 257.8">
  <!-- Generator: Adobe Illustrator 29.2.1, SVG Export Plug-In . SVG Version: 2.1.0 Build 116)  -->
  <defs>
    <style>
      .st0 {
        fill: #fffbe9;
      }
    </style>
  </defs>
  <path class="st0" d="M59.5,14.3c19,.6,38.1,1.2,57.1,1.8,19,.6,37.9,1.2,56.9,1.8s38.1,1.2,57.1,1.8,37.9,1.2,56.9,1.8c9.5.3,19,.6,28.4.9,7.4.2,15.3.5,20.9,6.1,4.6,4.5,6.7,10.9,8,17,1.6,7.6,2.2,15.4,2.8,23.1,1.4,18.4,1.7,36.8,1.7,55.3s-.3,36.9.2,55.3c.2,8.1.9,16.3-.2,24.3-1,7.5-3.9,14.6-8.3,20.8-7.7,10.8-20,16.5-32.3,20.1-17.4,5.1-35.1,8.7-53.2,8.5-18.9-.2-37.8-.8-56.7-1.6s-37.6-1.9-56.4-3.2c-18.9-1.4-37.7-3-56.5-4.9-9.4-1-18.7-2-28.1-3.1-4.7-.5-9.3-1.1-14-1.7-4.1-.5-8.2-1-12.2-1.9-3.8-.9-7.4-2.3-10.6-4.6-2.5-1.8-4.6-4.2-6.3-6.8-3.7-5.8-5.5-12.5-6.6-19.2-1.4-8.3-2-16.9-2.5-25.3-.5-9.3-.6-18.7-.4-28,.4-18.8,1.8-37.5,3.7-56.2.9-9.3,1.9-18.7,3-28,.9-8,1.9-16,4-23.8,1.9-7,4.8-14.3,9.7-19.8,3.9-4.3,8.8-7.1,14.4-8.6,6.4-1.7,13.1-1.9,19.7-1.8,3.2,0,3.2-4.9,0-5-13.1-.2-27.7,1.2-37.2,11.4-5.3,5.7-8.6,13.2-10.8,20.6-2.4,8-3.5,16.3-4.5,24.6-2.2,18.9-4.2,37.9-5.5,56.9s-2,38.2-1,57.4c.5,8.8,1.1,17.7,2.6,26.4,1.2,7,3.1,14.1,6.8,20.2,4,6.6,9.9,11.2,17.2,13.6,4.1,1.3,8.4,1.9,12.7,2.5,4.7.6,9.4,1.2,14,1.7,19.1,2.3,38.3,4.2,57.4,5.9,19.2,1.7,38.4,3.1,57.6,4.2s38.4,2,57.7,2.5c9.7.3,19.3.5,29,.6s18.7-.7,27.9-2.3c9.1-1.6,18-3.8,26.9-6.5,6.7-2,13.4-4.5,19.4-8.1,12.6-7.5,21.6-20,24.2-34.5,1.5-8.3,1-16.7.7-25.1-.3-9.3-.4-18.6-.4-28,0-18.9.2-37.8-.2-56.6-.2-9.4-.6-18.9-1.4-28.2-.6-8.1-1.3-16.2-2.9-24.1-1.4-6.7-3.8-13.5-8.5-18.6-5.5-6.1-13.4-7.9-21.4-8.3-9.5-.5-19.1-.6-28.7-.9s-19.5-.6-29.2-.9c-19.4-.6-38.7-1.2-58.1-1.8s-38.7-1.2-58.1-1.8c-19.4-.6-38.7-1.2-58.1-1.8-9.4-.3-18.8-.6-28.2-.9-3.2-.1-3.2,4.9,0,5h0Z"/>
</svg>