<svg width="1440" height="340" viewBox="0 0 1440 340" fill="none" xmlns="http://www.w3.org/2000/svg">
<path d="M0 27.8889C0 22.4133 4.31842 17.9582 9.79371 17.8997C51.2111 17.4579 214.904 15.9272 325 18.0093C478.974 20.9211 565.02 37.0787 719 34.5093C886.663 31.7114 979.315 -0.628512 1147 0.00930939C1246.35 0.387216 1393.57 13.6299 1431.06 17.1547C1436.18 17.6361 1440 21.9296 1440 27.0729V307.83C1440 313.021 1436.12 317.336 1430.94 317.732C1387.27 321.08 1195.21 334.2 1066.5 317.009C920.5 297.509 777.74 333.461 592.5 336.509C468.916 338.543 399.513 341.16 276 336.509C182.915 333.004 45.2051 321.05 8.98996 317.82C3.84198 317.36 0 313.054 0 307.886V27.8889Z" fill="#FEAC39"/>
</svg>
